<?xml version="1.0" encoding="UTF-8" standalone="no"?>
<!-- Created with Inkscape (http://www.inkscape.org/) -->

<svg
   xmlns:dc="http://purl.org/dc/elements/1.1/"
   xmlns:cc="http://creativecommons.org/ns#"
   xmlns:rdf="http://www.w3.org/1999/02/22-rdf-syntax-ns#"
   xmlns:svg="http://www.w3.org/2000/svg"
   xmlns="http://www.w3.org/2000/svg"
   xmlns:sodipodi="http://sodipodi.sourceforge.net/DTD/sodipodi-0.dtd"
   xmlns:inkscape="http://www.inkscape.org/namespaces/inkscape"
   width="297mm"
   height="210mm"
   viewBox="0 0 1122.5197 793.70081"
   id="svg2"
   version="1.1"
   inkscape:version="0.92.1 r"
   sodipodi:docname="ciProcess.svg"
   inkscape:export-filename="../images/ciProcess6.png"
   inkscape:export-xdpi="96"
   inkscape:export-ydpi="96">
  <defs
     id="defs4">
    <marker
       inkscape:stockid="Arrow2Mend"
       orient="auto"
       refY="0.0"
       refX="0.0"
       id="marker7459"
       style="overflow:visible;"
       inkscape:isstock="true">
      <path
         id="path7046"
         style="fill-rule:evenodd;stroke-width:0.625;stroke-linejoin:round;stroke:#999999;stroke-opacity:1;fill:#999999;fill-opacity:1"
         d="M 8.7185878,4.0337352 L -2.2072895,0.016013256 L 8.7185884,-4.0017078 C 6.9730900,-1.6296469 6.9831476,1.6157441 8.7185878,4.0337352 z "
         transform="scale(0.6) rotate(180) translate(0,0)" />
    </marker>
    <marker
       inkscape:stockid="Arrow1Mend"
       orient="auto"
       refY="0.0"
       refX="0.0"
       id="marker7282"
       style="overflow:visible;"
       inkscape:isstock="true">
      <path
         id="path7028"
         d="M 0.0,0.0 L 5.0,-5.0 L -12.5,0.0 L 5.0,5.0 L 0.0,0.0 z "
         style="fill-rule:evenodd;stroke:#00ff00;stroke-width:1pt;stroke-opacity:1;fill:#000000;fill-opacity:1"
         transform="scale(0.4) rotate(180) translate(10,0)" />
    </marker>
    <marker
       inkscape:stockid="Arrow2Mend"
       orient="auto"
       refY="0.0"
       refX="0.0"
       id="Arrow2Mend"
       style="overflow:visible;"
       inkscape:isstock="true">
      <path
         id="path6854"
         style="fill-rule:evenodd;stroke-width:0.625;stroke-linejoin:round;stroke:#00ff00;stroke-opacity:1;fill:#00ff00;fill-opacity:1"
         d="M 8.7185878,4.0337352 L -2.2072895,0.016013256 L 8.7185884,-4.0017078 C 6.9730900,-1.6296469 6.9831476,1.6157441 8.7185878,4.0337352 z "
         transform="scale(0.6) rotate(180) translate(0,0)" />
    </marker>
    <marker
       inkscape:stockid="Arrow1Send"
       orient="auto"
       refY="0.0"
       refX="0.0"
       id="Arrow1Send"
       style="overflow:visible;"
       inkscape:isstock="true">
      <path
         id="path6842"
         d="M 0.0,0.0 L 5.0,-5.0 L -12.5,0.0 L 5.0,5.0 L 0.0,0.0 z "
         style="fill-rule:evenodd;stroke:#00ff00;stroke-width:1pt;stroke-opacity:1;fill:#00ff00;fill-opacity:1"
         transform="scale(0.2) rotate(180) translate(6,0)" />
    </marker>
    <marker
       inkscape:stockid="Arrow1Mend"
       orient="auto"
       refY="0.0"
       refX="0.0"
       id="Arrow1Mend"
       style="overflow:visible;"
       inkscape:isstock="true">
      <path
         id="path6836"
         d="M 0.0,0.0 L 5.0,-5.0 L -12.5,0.0 L 5.0,5.0 L 0.0,0.0 z "
         style="fill-rule:evenodd;stroke:#999999;stroke-width:1pt;stroke-opacity:1;fill:#999999;fill-opacity:1"
         transform="scale(0.4) rotate(180) translate(10,0)" />
    </marker>
    <marker
       inkscape:stockid="Arrow2Mend"
       orient="auto"
       refY="0"
       refX="0"
       id="Arrow2Mend-2"
       style="overflow:visible"
       inkscape:isstock="true">
      <path
         inkscape:connector-curvature="0"
         id="path6854-7"
         style="fill:#00ff00;fill-opacity:1;fill-rule:evenodd;stroke:#00ff00;stroke-width:0.625;stroke-linejoin:round;stroke-opacity:1"
         d="M 8.7185878,4.0337352 -2.2072895,0.01601326 8.7185884,-4.0017078 c -1.7454984,2.3720609 -1.7354408,5.6174519 -6e-7,8.035443 z"
         transform="scale(-0.6)" />
    </marker>
    <marker
       inkscape:stockid="Arrow2Mend"
       orient="auto"
       refY="0"
       refX="0"
       id="marker7459-7"
       style="overflow:visible"
       inkscape:isstock="true">
      <path
         inkscape:connector-curvature="0"
         id="path7046-4"
         style="fill:#999999;fill-opacity:1;fill-rule:evenodd;stroke:#999999;stroke-width:0.625;stroke-linejoin:round;stroke-opacity:1"
         d="M 8.7185878,4.0337352 -2.2072895,0.01601326 8.7185884,-4.0017078 c -1.7454984,2.3720609 -1.7354408,5.6174519 -6e-7,8.035443 z"
         transform="scale(-0.6)" />
    </marker>
    <marker
       inkscape:stockid="Arrow2Mend"
       orient="auto"
       refY="0"
       refX="0"
       id="marker7459-7-1"
       style="overflow:visible"
       inkscape:isstock="true">
      <path
         inkscape:connector-curvature="0"
         id="path7046-4-9"
         style="fill:#999999;fill-opacity:1;fill-rule:evenodd;stroke:#999999;stroke-width:0.625;stroke-linejoin:round;stroke-opacity:1"
         d="M 8.7185878,4.0337352 -2.2072895,0.01601326 8.7185884,-4.0017078 c -1.7454984,2.3720609 -1.7354408,5.6174519 -6e-7,8.035443 z"
         transform="scale(-0.6)" />
    </marker>
    <marker
       inkscape:stockid="Arrow2Mend"
       orient="auto"
       refY="0"
       refX="0"
       id="marker7459-9"
       style="overflow:visible"
       inkscape:isstock="true">
      <path
         inkscape:connector-curvature="0"
         id="path7046-49"
         style="fill:#999999;fill-opacity:1;fill-rule:evenodd;stroke:#999999;stroke-width:0.625;stroke-linejoin:round;stroke-opacity:1"
         d="M 8.7185878,4.0337352 -2.2072895,0.01601326 8.7185884,-4.0017078 c -1.7454984,2.3720609 -1.7354408,5.6174519 -6e-7,8.035443 z"
         transform="scale(-0.6)" />
    </marker>
    <marker
       inkscape:stockid="Arrow2Mend"
       orient="auto"
       refY="0"
       refX="0"
       id="marker7459-7-11"
       style="overflow:visible"
       inkscape:isstock="true">
      <path
         inkscape:connector-curvature="0"
         id="path7046-4-7"
         style="fill:#999999;fill-opacity:1;fill-rule:evenodd;stroke:#999999;stroke-width:0.625;stroke-linejoin:round;stroke-opacity:1"
         d="M 8.7185878,4.0337352 -2.2072895,0.01601326 8.7185884,-4.0017078 c -1.7454984,2.3720609 -1.7354408,5.6174519 -6e-7,8.035443 z"
         transform="scale(-0.6)" />
    </marker>
  </defs>
  <sodipodi:namedview
     id="base"
     pagecolor="#000000"
     bordercolor="#666666"
     borderopacity="1.0"
     inkscape:pageopacity="0"
     inkscape:pageshadow="2"
     inkscape:zoom="0.64874305"
     inkscape:cx="545.31825"
     inkscape:cy="391.25507"
     inkscape:document-units="px"
     inkscape:current-layer="layer10"
     showgrid="false"
     units="mm"
     inkscape:window-width="1366"
     inkscape:window-height="741"
     inkscape:window-x="0"
     inkscape:window-y="27"
     inkscape:window-maximized="1"
     showguides="false">
    <sodipodi:guide
       position="-67.823465,870.91492"
       orientation="-0.70710678,0.70710678"
       id="guide9327"
       inkscape:locked="false" />
  </sodipodi:namedview>
  <metadata
     id="metadata7">
    <rdf:RDF>
      <cc:Work
         rdf:about="">
        <dc:format>image/svg+xml</dc:format>
        <dc:type
           rdf:resource="http://purl.org/dc/dcmitype/StillImage" />
        <dc:title></dc:title>
        <cc:license
           rdf:resource="http://creativecommons.org/licenses/by-nc-sa/4.0/" />
      </cc:Work>
      <cc:License
         rdf:about="http://creativecommons.org/licenses/by-nc-sa/4.0/">
        <cc:permits
           rdf:resource="http://creativecommons.org/ns#Reproduction" />
        <cc:permits
           rdf:resource="http://creativecommons.org/ns#Distribution" />
        <cc:requires
           rdf:resource="http://creativecommons.org/ns#Notice" />
        <cc:requires
           rdf:resource="http://creativecommons.org/ns#Attribution" />
        <cc:prohibits
           rdf:resource="http://creativecommons.org/ns#CommercialUse" />
        <cc:permits
           rdf:resource="http://creativecommons.org/ns#DerivativeWorks" />
        <cc:requires
           rdf:resource="http://creativecommons.org/ns#ShareAlike" />
      </cc:License>
    </rdf:RDF>
  </metadata>
  <g
     inkscape:label="Layer 1"
     inkscape:groupmode="layer"
     id="layer1"
     transform="translate(0,-258.66137)"
     style="display:inline">
    <g
       style="display:inline"
       id="g6244"
       transform="translate(-257.66491,-193.72848)">
      <g
         transform="matrix(-1.4391595e-4,0,0,1.4391595e-4,438.03495,617.6875)"
         id="g4933"
         style="display:inline;fill:none;fill-opacity:1;stroke:#00ff00;stroke-opacity:1">
        <path
           id="path4935"
           style="fill:none;fill-opacity:1;stroke:#00ff00;stroke-width:38100;stroke-linecap:butt;stroke-linejoin:round;stroke-miterlimit:10;stroke-dasharray:none;stroke-opacity:1"
           d="M 5908.731,388006.2 C -23425.14,231462.3 58367.74,75049.69 208808.8,-0.335556 359249.6,179461 608053.4,15552.3 668163.2,57630.01 791902.6,167078.4 826311.4,338069.7 753519.7,481801 517958.9,518273.3 314231.4,567447.4 5908.731,388006.2 Z"
           inkscape:connector-curvature="0" />
      </g>
      <g
         transform="matrix(-1.4391595e-4,0,0,1.4391595e-4,413.0577,546.16763)"
         id="g4937"
         style="display:inline;fill:none;fill-opacity:1;stroke:#00ff00;stroke-opacity:1">
        <path
           id="path4939"
           style="fill:none;fill-opacity:1;stroke:#00ff00;stroke-width:38100;stroke-linecap:butt;stroke-linejoin:round;stroke-miterlimit:10;stroke-dasharray:none;stroke-opacity:1"
           d="M 0.08703613,248479 C 0.08703613,111247.9 114284.2,0 255261.2,0 396237.9,0 510522,111247.9 510522,248479 510522,385710.2 396237.9,496958 255261.2,496958 114284.2,496958 0.08703613,385710.2 0.08703613,248479 Z"
           inkscape:connector-curvature="0" />
      </g>
      <path
         id="path4941"
         style="display:inline;fill:#00ff00;fill-opacity:1;fill-rule:evenodd;stroke:none;stroke-width:1.25;stroke-opacity:1"
         d="m 396.20447,585.092 c 0,-3.7186 -1.32658,-6.73311 -2.96276,-6.73311 -1.63619,0 -2.96258,3.01451 -2.96258,6.73311 0,3.7186 1.32639,6.73312 2.96258,6.73312 1.63618,0 2.96276,-3.01452 2.96276,-6.73312 z"
         inkscape:connector-curvature="0" />
      <path
         id="path4943"
         style="display:inline;fill:#00ff00;fill-opacity:1;fill-rule:evenodd;stroke:none;stroke-width:1.25;stroke-opacity:1"
         d="m 376.1875,585.092 c 0,-3.7186 -1.3264,-6.73311 -2.96258,-6.73311 -1.63619,0 -2.96276,3.01451 -2.96276,6.73311 0,3.7186 1.32657,6.73312 2.96276,6.73312 1.63618,0 2.96258,-3.01452 2.96258,-6.73312 z"
         inkscape:connector-curvature="0" />
      <g
         transform="matrix(0,1.4391595e-4,1.4391595e-4,0,311.21169,573.74313)"
         id="g4989"
         style="display:inline;fill:none;fill-opacity:1;stroke:#00ff00;stroke-opacity:1">
        <path
           id="path4991"
           style="fill:none;fill-opacity:1;stroke:#00ff00;stroke-width:28575;stroke-linecap:butt;stroke-linejoin:round;stroke-miterlimit:10;stroke-dasharray:none;stroke-opacity:1"
           d="M -0.04052734,152399.8 62488.98,-0.1838379 124977,152399.8 Z"
           inkscape:connector-curvature="0" />
      </g>
      <g
         transform="matrix(-7.1957975e-5,1.2463485e-4,1.2463485e-4,7.1957975e-5,324.1067,540.90467)"
         id="g4993"
         style="display:inline;fill:none;fill-opacity:1;stroke:#00ff00;stroke-opacity:1">
        <path
           id="path4995"
           style="fill:none;fill-opacity:1;stroke:#00ff00;stroke-width:28575;stroke-linecap:butt;stroke-linejoin:round;stroke-miterlimit:10;stroke-dasharray:none;stroke-opacity:1"
           d="M -0.00105278,152400.1 62489.04,0.04541476 124976.9,152400.2 Z"
           inkscape:connector-curvature="0" />
      </g>
      <g
         transform="matrix(-1.3100586e-4,5.957569e-5,5.957569e-5,1.3100586e-4,355.24634,519.79658)"
         id="g4997"
         style="display:inline;fill:none;fill-opacity:1;stroke:#00ff00;stroke-opacity:1">
        <path
           id="path4999"
           style="fill:none;fill-opacity:1;stroke:#00ff00;stroke-width:28575;stroke-linecap:butt;stroke-linejoin:round;stroke-miterlimit:10;stroke-dasharray:none;stroke-opacity:1"
           d="M 0.2625623,152400 62489.12,0.1274524 124977,152400.1 Z"
           inkscape:connector-curvature="0" />
      </g>
      <g
         transform="matrix(-1.4156224e-4,-2.5921688e-5,-2.5921688e-5,1.4156224e-4,392.06565,519.11567)"
         id="g5001"
         style="display:inline;fill:none;fill-opacity:1;stroke:#00ff00;stroke-opacity:1">
        <path
           id="path5003"
           style="fill:none;fill-opacity:1;stroke:#00ff00;stroke-width:28575;stroke-linecap:butt;stroke-linejoin:round;stroke-miterlimit:10;stroke-dasharray:none;stroke-opacity:1"
           d="M -0.1114978,152400 62488.99,0.03853447 124976.7,152400 Z"
           inkscape:connector-curvature="0" />
      </g>
    </g>
    <flowRoot
       transform="translate(-430.11601,48.91588)"
       style="font-style:normal;font-variant:normal;font-weight:normal;font-stretch:normal;line-height:0.01%;font-family:'Anime Ace 2.0 BB';-inkscape-font-specification:'Anime Ace 2.0 BB, Normal';text-align:center;letter-spacing:0px;word-spacing:0px;writing-mode:lr-tb;text-anchor:middle;display:inline;fill:#00ff00;fill-opacity:1;stroke:none;stroke-width:1px;stroke-linecap:butt;stroke-linejoin:miter;stroke-opacity:1"
       id="flowRoot5316-2-0-6"
       xml:space="preserve"><flowRegion
         id="flowRegion5318-5-1-5"
         style="fill:#00ff00;fill-opacity:1"><rect
           y="463.58447"
           x="436.41748"
           height="76.234917"
           width="220.97087"
           id="rect5320-2-7-6"
           style="fill:#00ff00;fill-opacity:1" /></flowRegion><flowPara
         id="flowPara14506-1-8"
         style="font-size:30px;line-height:1.25;fill:#00ff00;fill-opacity:1">developer</flowPara></flowRoot>  </g>
  <g
     inkscape:groupmode="layer"
     id="layer2"
     inkscape:label="Layer 2"
     style="display:inline"
     transform="translate(0,25.700787)">
    <path
       transform="translate(0,-284.36216)"
       style="display:inline;opacity:1;fill:none;fill-opacity:1;fill-rule:nonzero;stroke:#00ff00;stroke-width:4;stroke-linecap:round;stroke-linejoin:round;stroke-miterlimit:4;stroke-dasharray:none;stroke-dashoffset:0;stroke-opacity:1"
       d="m 578.57054,360.27991 c -9.58983,-9.58982 -25.03035,-9.58982 -34.62017,0 l -5.59567,5.59567 17.21223,17.21222 a 10.630511,10.630511 0 0 1 5.69232,-1.65502 10.630511,10.630511 0 0 1 7.62638,3.22427 10.630511,10.630511 0 0 1 3.00441,7.40652 10.630511,10.630511 0 0 1 -1.66349,5.68386 l 19.06054,19.06054 a 10.630511,10.630511 0 0 1 5.21152,-1.37959 10.630511,10.630511 0 0 1 10.63079,10.63079 10.630511,10.630511 0 0 1 -10.62959,10.62959 10.630511,10.630511 0 0 1 -10.63079,-10.63079 10.630511,10.630511 0 0 1 1.96306,-6.14292 l -18.87933,-18.87933 a 10.630511,10.630511 0 0 1 -3.37286,1.38683 v 47.26598 a 10.630511,10.630511 0 0 1 8.31015,10.36624 10.630511,10.630511 0 0 1 -10.63079,10.63079 10.630511,10.630511 0 0 1 -10.63079,-10.63079 10.630511,10.630511 0 0 1 8.31013,-10.36141 v -47.26597 a 10.630511,10.630511 0 0 1 -8.30894,-10.36503 10.630511,10.630511 0 0 1 1.66347,-5.68626 l -17.21946,-17.21948 -39.59247,39.59247 c -9.58982,9.58983 -9.58982,25.03034 0,34.62017 l 48.46797,48.46796 c 9.58982,9.58983 25.03033,9.58983 34.62016,0 l 48.46918,-48.46918 c 9.58982,-9.58982 9.58983,-25.03034 0,-34.62016 z"
       id="rect5370"
       inkscape:connector-curvature="0" />
    <flowRoot
       transform="translate(14.517655,-233.48897)"
       style="font-style:normal;font-variant:normal;font-weight:normal;font-stretch:normal;line-height:0.01%;font-family:'Anime Ace 2.0 BB';-inkscape-font-specification:'Anime Ace 2.0 BB, Normal';text-align:center;letter-spacing:0px;word-spacing:0px;writing-mode:lr-tb;text-anchor:middle;display:inline;fill:#00ff00;fill-opacity:1;stroke:none;stroke-width:1px;stroke-linecap:butt;stroke-linejoin:miter;stroke-opacity:1"
       id="flowRoot5316-2-0"
       xml:space="preserve"><flowRegion
         id="flowRegion5318-5-1"
         style="fill:#00ff00;fill-opacity:1"><rect
           y="463.58447"
           x="436.41748"
           height="76.234917"
           width="220.97087"
           id="rect5320-2-7"
           style="fill:#00ff00;fill-opacity:1" /></flowRegion><flowPara
         id="flowPara14506-1"
         style="font-size:30px;line-height:1.25;fill:#00ff00;fill-opacity:1">git repo</flowPara></flowRoot>    <path
       transform="translate(0,-284.36216)"
       style="display:inline;opacity:1;fill:#999999;fill-opacity:1;fill-rule:nonzero;stroke:#999999;stroke-width:4;stroke-linecap:round;stroke-linejoin:round;stroke-miterlimit:4;stroke-dasharray:none;stroke-dashoffset:0;stroke-opacity:1;marker-end:url(#marker7459)"
       d="M 209.27315,429.82299 H 457.78501"
       id="path6981"
       inkscape:connector-curvature="0" />
    <flowRoot
       xml:space="preserve"
       id="flowRoot9205"
       style="font-style:normal;font-variant:normal;font-weight:normal;font-stretch:normal;font-size:30px;line-height:125%;font-family:'Anime Ace 2.0 BB';-inkscape-font-specification:'Anime Ace 2.0 BB, Normal';text-align:center;letter-spacing:0px;word-spacing:0px;writing-mode:lr-tb;text-anchor:middle;display:inline;fill:#000000;fill-opacity:1;stroke:none;stroke-width:1px;stroke-linecap:butt;stroke-linejoin:miter;stroke-opacity:1"
       transform="translate(18.508241,-11.700787)"><flowRegion
         id="flowRegion9207"><rect
           id="rect9209"
           width="168.01721"
           height="36.994617"
           x="232.7578"
           y="109.30039" /></flowRegion><flowPara
         id="flowPara9211"
         style="fill:#999999;fill-opacity:1">git push</flowPara></flowRoot>  </g>
  <g
     inkscape:groupmode="layer"
     id="layer3"
     inkscape:label="Layer 3"
     style="display:inline"
     transform="translate(0,25.700787)">
    <g
       style="display:inline"
       id="g6464"
       transform="translate(102.28645,-233.46252)">
      <g
         style="stroke-width:4.73574018;stroke-miterlimit:4;stroke-dasharray:none"
         transform="matrix(0.84464091,0,0,0.84464091,145.30086,67.675171)"
         id="g6429">
        <rect
           style="opacity:1;fill:none;fill-opacity:1;fill-rule:nonzero;stroke:#00ff00;stroke-width:4.73574018;stroke-linecap:round;stroke-linejoin:round;stroke-miterlimit:4;stroke-dasharray:none;stroke-dashoffset:0;stroke-opacity:1"
           id="rect6559-1"
           width="63.021049"
           height="114.37154"
           x="827.07196"
           y="319.23331"
           ry="0" />
        <rect
           style="opacity:1;fill:none;fill-opacity:1;fill-rule:nonzero;stroke:#00ff00;stroke-width:4.73574018;stroke-linecap:round;stroke-linejoin:round;stroke-miterlimit:4;stroke-dasharray:none;stroke-dashoffset:0;stroke-opacity:1"
           id="rect6564-0"
           width="44.348141"
           height="18.672903"
           x="836.09149"
           y="332.10437" />
        <path
           style="display:inline;opacity:1;fill:none;fill-opacity:1;fill-rule:nonzero;stroke:#00ff00;stroke-width:4.73574018;stroke-linecap:round;stroke-linejoin:round;stroke-miterlimit:4;stroke-dasharray:none;stroke-dashoffset:0;stroke-opacity:1"
           d="m 933.25819,290.27346 -43.16523,28.9599 v 114.37153 l 43.16523,-28.95987 z"
           id="rect6559-7-0"
           inkscape:connector-curvature="0"
           sodipodi:nodetypes="ccccc" />
        <path
           style="display:inline;opacity:1;fill:none;fill-opacity:1;fill-rule:nonzero;stroke:#00ff00;stroke-width:4.73574018;stroke-linecap:round;stroke-linejoin:round;stroke-miterlimit:4;stroke-dasharray:none;stroke-dashoffset:0;stroke-opacity:1"
           d="m 933.25819,290.27358 -43.16523,28.95989 H 827.3881 l 43.16462,-28.95989 z"
           id="rect6559-7-6-7"
           inkscape:connector-curvature="0"
           sodipodi:nodetypes="ccccc" />
      </g>
      <g
         transform="translate(0,-28.372004)"
         id="g6405">
        <circle
           style="opacity:1;fill:#000000;fill-opacity:1;fill-rule:nonzero;stroke:none;stroke-width:4.53916502;stroke-linecap:round;stroke-linejoin:round;stroke-miterlimit:4;stroke-dasharray:none;stroke-dashoffset:0;stroke-opacity:1"
           id="path6400"
           cx="913.98755"
           cy="440.1601"
           r="33.417751" />
        <path
           inkscape:connector-curvature="0"
           style="opacity:1;fill:#000000;fill-opacity:1;fill-rule:nonzero;stroke:#00ff00;stroke-width:4;stroke-linecap:round;stroke-linejoin:round;stroke-miterlimit:4;stroke-dasharray:none;stroke-dashoffset:0;stroke-opacity:1"
           d="m 886.77813,416.95069 -21.34539,23.6401 h 9.16531 c 3.07852,40.82507 50.14103,46.2406 68.57817,19.22391 -27.25621,15.24983 -46.93033,2.59087 -44.27801,-19.22391 h 9.22531 z"
           id="path6354" />
        <path
           inkscape:connector-curvature="0"
           style="display:inline;opacity:1;fill:#333333;fill-opacity:1;fill-rule:nonzero;stroke:#00ff00;stroke-width:4;stroke-linecap:round;stroke-linejoin:round;stroke-miterlimit:4;stroke-dasharray:none;stroke-dashoffset:0;stroke-opacity:1"
           d="m 943.17622,459.8147 21.34539,-23.6401 h -9.16531 c -3.07852,-40.82506 -50.14103,-46.24059 -68.57817,-19.22391 27.25621,-15.24982 46.93033,-2.59086 44.27801,19.22391 h -9.22531 z"
           id="path6354-2" />
      </g>
    </g>
    <flowRoot
       transform="translate(459.31997,-233.48897)"
       style="font-style:normal;font-variant:normal;font-weight:normal;font-stretch:normal;line-height:0.01%;font-family:'Anime Ace 2.0 BB';-inkscape-font-specification:'Anime Ace 2.0 BB, Normal';text-align:center;letter-spacing:0px;word-spacing:0px;writing-mode:lr-tb;text-anchor:middle;display:inline;fill:#00ff00;fill-opacity:1;stroke:none;stroke-width:1px;stroke-linecap:butt;stroke-linejoin:miter;stroke-opacity:1"
       id="flowRoot5316-2-0-1"
       xml:space="preserve"><flowRegion
         id="flowRegion5318-5-1-0"
         style="fill:#00ff00;fill-opacity:1"><rect
           y="463.58447"
           x="436.41748"
           height="76.234917"
           width="220.97087"
           id="rect5320-2-7-3"
           style="fill:#00ff00;fill-opacity:1" /></flowRegion><flowPara
         id="flowPara14506-1-4"
         style="font-size:30px;line-height:1.25;fill:#00ff00;fill-opacity:1">CI server</flowPara></flowRoot>    <path
       transform="translate(0,-284.36216)"
       style="display:inline;opacity:1;fill:#999999;fill-opacity:1;fill-rule:nonzero;stroke:#999999;stroke-width:4;stroke-linecap:round;stroke-linejoin:round;stroke-miterlimit:4;stroke-dasharray:none;stroke-dashoffset:0;stroke-opacity:1;marker-end:url(#marker7459-7)"
       d="M 662.95311,429.82299 H 911.46496"
       id="path6981-9"
       inkscape:connector-curvature="0" />
    <flowRoot
       transform="translate(471.95382,-7.646157)"
       xml:space="preserve"
       id="flowRoot9205-2"
       style="font-style:normal;font-variant:normal;font-weight:normal;font-stretch:normal;font-size:30px;line-height:125%;font-family:'Anime Ace 2.0 BB';-inkscape-font-specification:'Anime Ace 2.0 BB, Normal';text-align:center;letter-spacing:0px;word-spacing:0px;writing-mode:lr-tb;text-anchor:middle;display:inline;fill:#000000;fill-opacity:1;stroke:none;stroke-width:1px;stroke-linecap:butt;stroke-linejoin:miter;stroke-opacity:1"><flowRegion
         id="flowRegion9207-8"><rect
           id="rect9209-6"
           width="168.01721"
           height="36.994617"
           x="232.7578"
           y="109.30039" /></flowRegion><flowPara
         id="flowPara9211-8"
         style="fill:#999999;fill-opacity:1">event</flowPara></flowRoot>  </g>
  <g
     inkscape:groupmode="layer"
     id="layer5"
     inkscape:label="Layer 4"
     style="display:inline"
     transform="translate(0,25.700787)">
    <flowRoot
       xml:space="preserve"
       id="flowRoot7724"
       style="font-style:normal;font-variant:normal;font-weight:normal;font-stretch:normal;line-height:0.01%;font-family:'Anime Ace 2.0 BB';-inkscape-font-specification:'Anime Ace 2.0 BB, Normal';text-align:center;letter-spacing:0px;word-spacing:0px;writing-mode:lr-tb;text-anchor:middle;display:inline;fill:#00ff00;fill-opacity:1;stroke:none;stroke-width:1px;stroke-linecap:butt;stroke-linejoin:miter;stroke-opacity:1"
       transform="translate(303.35567,189.19933)"
       inkscape:export-filename="/Users/tess/projects/rideTheWhale/images/dockerfile.png"
       inkscape:export-xdpi="90"
       inkscape:export-ydpi="90"><flowRegion
         id="flowRegion7726"
         style="fill:#00ff00;fill-opacity:1;stroke:none;stroke-opacity:1"><rect
           id="rect7728"
           width="297.75259"
           height="45.378021"
           x="-334.77087"
           y="449.22137"
           style="fill:#00ff00;fill-opacity:1;stroke:none;stroke-opacity:1" /></flowRegion><flowPara
         id="flowPara7730"
         style="font-size:30px;line-height:1.25;fill:#00ff00;fill-opacity:1;stroke:none;stroke-opacity:1">CI rules</flowPara></flowRoot>    <g
       style="display:inline"
       id="g6819"
       transform="translate(-49.85355,-244.16826)">
      <g
         transform="translate(7.7825904,164.49813)"
         id="g10502">
        <path
           style="display:inline;fill:none;fill-opacity:1;stroke:#00ff00;stroke-width:4;stroke-linecap:butt;stroke-linejoin:round;stroke-miterlimit:4;stroke-dasharray:none;stroke-dashoffset:0;stroke-opacity:1"
           d="m 212.8684,600.48978 2.4e-4,108.41332 H 105.87329 V 572.07668 h 79.49811"
           id="rect7628"
           inkscape:connector-curvature="0"
           sodipodi:nodetypes="ccccc" />
        <path
           style="display:inline;fill:none;fill-opacity:1;stroke:#00ff00;stroke-width:4;stroke-linecap:butt;stroke-linejoin:round;stroke-miterlimit:4;stroke-dasharray:none;stroke-dashoffset:0;stroke-opacity:1"
           d="m 185.37282,572.07639 v 28.41211 h 27.49609 z"
           id="rect7628-7"
           inkscape:connector-curvature="0" />
      </g>
      <circle
         r="10.771388"
         cy="837.65405"
         cx="142.04947"
         id="path6769"
         style="opacity:1;fill:none;fill-opacity:1;fill-rule:nonzero;stroke:#00ff00;stroke-width:3;stroke-linecap:round;stroke-linejoin:round;stroke-miterlimit:4;stroke-dasharray:none;stroke-dashoffset:0;stroke-opacity:1" />
      <circle
         r="10.771388"
         cy="836.78729"
         cx="173.50089"
         id="path6769-5"
         style="display:inline;opacity:1;fill:none;fill-opacity:1;fill-rule:nonzero;stroke:#00ff00;stroke-width:3;stroke-linecap:round;stroke-linejoin:round;stroke-miterlimit:4;stroke-dasharray:none;stroke-dashoffset:0;stroke-opacity:1" />
      <circle
         r="10.771388"
         cy="785.23651"
         cx="142.04947"
         id="path6769-1"
         style="display:inline;opacity:1;fill:none;fill-opacity:1;fill-rule:nonzero;stroke:#00ff00;stroke-width:3;stroke-linecap:round;stroke-linejoin:round;stroke-miterlimit:4;stroke-dasharray:3, 6;stroke-dashoffset:0;stroke-opacity:1" />
      <g
         transform="translate(231.46119,138.59665)"
         id="g6823">
        <path
           style="opacity:1;fill:none;fill-opacity:1;fill-rule:nonzero;stroke:#00ff00;stroke-width:3;stroke-linecap:round;stroke-linejoin:round;stroke-miterlimit:4;stroke-dasharray:none;stroke-dashoffset:0;stroke-opacity:1"
           d="m -67.70587,636.89432 19.491084,19.49108"
           id="path6804"
           inkscape:connector-curvature="0" />
        <path
           style="display:inline;opacity:1;fill:none;fill-opacity:1;fill-rule:nonzero;stroke:#00ff00;stroke-width:3;stroke-linecap:round;stroke-linejoin:round;stroke-miterlimit:4;stroke-dasharray:none;stroke-dashoffset:0;stroke-opacity:1"
           d="m -48.214788,636.89432 -19.49108,19.49108"
           id="path6804-7"
           inkscape:connector-curvature="0" />
      </g>
      <path
         inkscape:connection-end="#path6769-1"
         inkscape:connection-start="#path6769-5"
         inkscape:connector-curvature="0"
         inkscape:connector-type="polyline"
         id="path6825"
         d="m 167.89098,827.59231 -20.2316,-33.16082"
         style="fill:none;fill-rule:evenodd;stroke:#00ff00;stroke-width:4;stroke-linecap:butt;stroke-linejoin:miter;stroke-miterlimit:4;stroke-dasharray:none;stroke-opacity:1;marker-end:url(#Arrow2Mend)" />
    </g>
    <path
       transform="translate(0,-284.36216)"
       style="display:inline;opacity:1;fill:#999999;fill-opacity:1;fill-rule:nonzero;stroke:#999999;stroke-width:4;stroke-linecap:round;stroke-linejoin:round;stroke-miterlimit:4;stroke-dasharray:none;stroke-dashoffset:0;stroke-opacity:1;marker-end:url(#marker7459-7-11)"
       d="M 892.62802,553.1003 203.9429,798.18963"
       id="path6981-9-8"
       inkscape:connector-curvature="0"
       sodipodi:nodetypes="cc" />
    <flowRoot
       transform="rotate(-19.403058,1102.7414,-478.44236)"
       xml:space="preserve"
       id="flowRoot9205-0-0"
       style="font-style:normal;font-variant:normal;font-weight:normal;font-stretch:normal;font-size:30px;line-height:125%;font-family:'Anime Ace 2.0 BB';-inkscape-font-specification:'Anime Ace 2.0 BB, Normal';text-align:center;letter-spacing:0px;word-spacing:0px;writing-mode:lr-tb;text-anchor:middle;display:inline;fill:#000000;fill-opacity:1;stroke:none;stroke-width:1px;stroke-linecap:butt;stroke-linejoin:miter;stroke-opacity:1"><flowRegion
         id="flowRegion9207-5-9"><rect
           id="rect9209-8-5"
           width="168.01721"
           height="36.994617"
           x="232.7578"
           y="109.30039" /></flowRegion><flowPara
         id="flowPara9211-4-6"
         style="fill:#999999;fill-opacity:1">reads</flowPara></flowRoot>  </g>
  <g
     inkscape:groupmode="layer"
     id="layer4"
     inkscape:label="Layer 5"
     style="display:inline"
     transform="translate(0,25.700787)">
    <text
       xml:space="preserve"
       style="font-style:normal;font-variant:normal;font-weight:normal;font-stretch:normal;font-size:30px;line-height:125%;font-family:'Anime Ace 2.0 BB';-inkscape-font-specification:'Anime Ace 2.0 BB, Normal';text-align:center;letter-spacing:0px;word-spacing:0px;writing-mode:lr-tb;text-anchor:middle;fill:#000000;fill-opacity:1;stroke:none;stroke-width:1px;stroke-linecap:butt;stroke-linejoin:miter;stroke-opacity:1"
       x="311.9147"
       y="370.49011"
       id="text4759"><tspan
         sodipodi:role="line"
         id="tspan4757"
         x="311.9147"
         y="404.03275" /></text>
    <flowRoot
       xml:space="preserve"
       id="flowRoot8016"
       style="font-style:normal;font-variant:normal;font-weight:normal;font-stretch:normal;line-height:0.01%;font-family:'Anime Ace 2.0 BB';-inkscape-font-specification:'Anime Ace 2.0 BB, Normal';text-align:center;letter-spacing:0px;word-spacing:0px;writing-mode:lr-tb;text-anchor:middle;display:inline;fill:#00ff00;fill-opacity:1;stroke:none;stroke-width:1px;stroke-linecap:butt;stroke-linejoin:miter;stroke-opacity:1"
       transform="translate(779.30769,514.18761)"><flowRegion
         id="flowRegion8018"
         style="fill:#00ff00;fill-opacity:1"><rect
           id="rect8020"
           width="190.02107"
           height="75.333801"
           x="-313.70343"
           y="124.34929"
           style="fill:#00ff00;fill-opacity:1" /></flowRegion><flowPara
         id="flowPara8022"
         style="font-size:30px;line-height:1.25;fill:#00ff00;fill-opacity:1">SSH/sftp</flowPara></flowRoot>    <g
       style="display:inline"
       id="g6756"
       transform="translate(619.07898,189.59809)">
      <path
         inkscape:connector-curvature="0"
         id="path7999"
         d="m -87.189348,373.86011 v 39.77476 h 39.77476"
         style="fill:none;fill-rule:evenodd;stroke:#00ff00;stroke-width:4;stroke-linecap:butt;stroke-linejoin:miter;stroke-miterlimit:4;stroke-dasharray:4, 4;stroke-dashoffset:0;stroke-opacity:1" />
      <rect
         ry="0"
         y="323.60825"
         x="-114.87915"
         height="50.251854"
         width="27.689796"
         id="rect6559"
         style="opacity:1;fill:none;fill-opacity:1;fill-rule:nonzero;stroke:#00ff00;stroke-width:4;stroke-linecap:round;stroke-linejoin:round;stroke-miterlimit:4;stroke-dasharray:none;stroke-dashoffset:0;stroke-opacity:1" />
      <rect
         y="329.26346"
         x="-110.91616"
         height="8.2043839"
         width="19.485411"
         id="rect6564"
         style="opacity:1;fill:none;fill-opacity:1;fill-rule:nonzero;stroke:#00ff00;stroke-width:3;stroke-linecap:round;stroke-linejoin:round;stroke-miterlimit:4;stroke-dasharray:none;stroke-dashoffset:0;stroke-opacity:1" />
      <path
         sodipodi:nodetypes="ccccc"
         inkscape:connector-curvature="0"
         id="rect6559-7"
         d="m -68.22368,310.88404 -18.965673,12.72422 v 50.25185 L -68.22368,361.1359 Z"
         style="display:inline;opacity:1;fill:none;fill-opacity:1;fill-rule:nonzero;stroke:#00ff00;stroke-width:4;stroke-linecap:round;stroke-linejoin:round;stroke-miterlimit:4;stroke-dasharray:none;stroke-dashoffset:0;stroke-opacity:1" />
      <path
         sodipodi:nodetypes="ccccc"
         inkscape:connector-curvature="0"
         id="rect6559-7-6"
         d="m -68.22368,310.88409 -18.965673,12.72422 h -27.550867 l 18.965399,-12.72422 z"
         style="display:inline;opacity:1;fill:none;fill-opacity:1;fill-rule:nonzero;stroke:#00ff00;stroke-width:4;stroke-linecap:round;stroke-linejoin:round;stroke-miterlimit:4;stroke-dasharray:none;stroke-dashoffset:0;stroke-opacity:1" />
      <rect
         ry="0"
         y="389.38303"
         x="-47.414589"
         height="50.251854"
         width="27.689796"
         id="rect6559-8"
         style="opacity:1;fill:none;fill-opacity:1;fill-rule:nonzero;stroke:#00ff00;stroke-width:4;stroke-linecap:round;stroke-linejoin:round;stroke-miterlimit:4;stroke-dasharray:none;stroke-dashoffset:0;stroke-opacity:1" />
      <rect
         y="395.03824"
         x="-43.451603"
         height="8.2043839"
         width="19.485411"
         id="rect6564-6"
         style="opacity:1;fill:none;fill-opacity:1;fill-rule:nonzero;stroke:#00ff00;stroke-width:3;stroke-linecap:round;stroke-linejoin:round;stroke-miterlimit:4;stroke-dasharray:none;stroke-dashoffset:0;stroke-opacity:1" />
      <path
         sodipodi:nodetypes="ccccc"
         inkscape:connector-curvature="0"
         id="rect6559-7-2"
         d="M -0.75912013,376.65881 -19.724793,389.38303 v 50.25185 l 18.96567287,-12.72422 z"
         style="display:inline;opacity:1;fill:none;fill-opacity:1;fill-rule:nonzero;stroke:#00ff00;stroke-width:4;stroke-linecap:round;stroke-linejoin:round;stroke-miterlimit:4;stroke-dasharray:none;stroke-dashoffset:0;stroke-opacity:1" />
      <path
         sodipodi:nodetypes="ccccc"
         inkscape:connector-curvature="0"
         id="rect6559-7-6-9"
         d="M -0.75912013,376.65886 -19.724793,389.38308 h -27.550866 l 18.965398,-12.72422 z"
         style="display:inline;opacity:1;fill:none;fill-opacity:1;fill-rule:nonzero;stroke:#00ff00;stroke-width:4;stroke-linecap:round;stroke-linejoin:round;stroke-miterlimit:4;stroke-dasharray:none;stroke-dashoffset:0;stroke-opacity:1" />
    </g>
    <path
       transform="translate(0,-284.36216)"
       style="display:inline;opacity:1;fill:#999999;fill-opacity:1;fill-rule:nonzero;stroke:#999999;stroke-width:4;stroke-linecap:round;stroke-linejoin:round;stroke-miterlimit:4;stroke-dasharray:none;stroke-dashoffset:0;stroke-opacity:1;marker-end:url(#marker7459-9)"
       d="M 209.27315,862.96895 H 457.78501"
       id="path6981-0"
       inkscape:connector-curvature="0" />
    <flowRoot
       transform="translate(18.185975,425.53789)"
       xml:space="preserve"
       id="flowRoot9205-0"
       style="font-style:normal;font-variant:normal;font-weight:normal;font-stretch:normal;font-size:30px;line-height:125%;font-family:'Anime Ace 2.0 BB';-inkscape-font-specification:'Anime Ace 2.0 BB, Normal';text-align:center;letter-spacing:0px;word-spacing:0px;writing-mode:lr-tb;text-anchor:middle;display:inline;fill:#000000;fill-opacity:1;stroke:none;stroke-width:1px;stroke-linecap:butt;stroke-linejoin:miter;stroke-opacity:1"><flowRegion
         id="flowRegion9207-5"><rect
           id="rect9209-8"
           width="168.01721"
           height="36.994617"
           x="232.7578"
           y="109.30039" /></flowRegion><flowPara
         id="flowPara9211-4"
         style="fill:#999999;fill-opacity:1">connect</flowPara></flowRoot>  </g>
  <g
     inkscape:groupmode="layer"
     id="layer10"
     inkscape:label="Layer 6"
     style="display:inline">
    <g
       id="g4428"
       style="display:inline;fill:none;fill-opacity:1;stroke:#00ff00;stroke-opacity:1"
       transform="translate(646.30434,489.65996)">
      <circle
         r="51.928154"
         cy="113.34564"
         cx="360.18253"
         id="path4353-4-8"
         style="display:inline;fill:none;fill-opacity:1;stroke:#00ff00;stroke-width:4;stroke-linecap:butt;stroke-linejoin:round;stroke-miterlimit:4;stroke-dasharray:none;stroke-opacity:1" />
      <circle
         r="51.928154"
         cy="113.34564"
         cx="360.18253"
         id="path4353-4-0"
         style="display:inline;fill:none;fill-opacity:1;stroke:#00ff00;stroke-width:4;stroke-linecap:butt;stroke-linejoin:round;stroke-miterlimit:4;stroke-dasharray:none;stroke-opacity:1" />
      <path
         id="path4353"
         d="m 325.04297,75.181641 a 51.928154,51.928154 0 0 0 -16.78906,38.164059 51.928154,51.928154 0 0 0 12.96289,34.22657 c 0.84821,-1.32682 1.4477,-2.23286 1.61132,-2.39649 0.26043,-0.26042 0.84311,0.26042 1.10352,0 0.26042,-0.26042 -0.26041,-0.8431 0,-1.10351 0.52084,-0.52084 1.69011,0.52083 2.21094,0 0.26042,-0.26042 -0.26041,-0.84505 0,-1.10547 0.26042,-0.26042 0.7741,0.1647 1.10351,0 0.46584,-0.23292 0.63962,-0.87255 1.10547,-1.10547 0.3294,-0.16471 0.84506,0.26041 1.10547,0 0.26042,-0.26042 -0.1647,-0.77411 0,-1.10352 2.29911,-4.59814 -0.077,1.18051 2.20899,-1.10547 0.26042,-0.26042 -0.26041,-0.84504 0,-1.10546 0.26042,-0.26041 0.84504,0.26042 1.10546,0 0.58231,-0.58232 -1.08526,-2.31928 1.10352,-2.20899 1.50421,-1.0028 1.99495,-1.17652 2.14648,-1.16797 -0.009,-0.15153 0.16517,-0.64227 1.16797,-2.14648 0.57781,-0.86672 1.7451,-1.27729 2.21094,-2.20899 0.16813,-0.33624 0,-2.81687 0,-3.31445 0,-0.36828 0.26042,-0.84506 0,-1.10547 -0.26041,-0.26042 -0.84505,0.26041 -1.10547,0 -0.0355,-0.0355 0,-3.04649 0,-3.31445 v -1.10547 c 0,-0.36829 -0.26042,-0.84505 0,-1.10547 0.26042,-0.26041 0.84506,0.26042 1.10547,0 0.26042,-0.26041 -0.1647,-0.77411 0,-1.10352 0.23293,-0.46585 0.87059,-0.63962 1.10352,-1.10546 0.1647,-0.32941 -0.1647,-0.77606 0,-1.10547 2.52824,-5.05648 -0.45671,4.68846 2.21093,-3.31446 0.23115,-0.69347 0,-3.52851 0,-4.41796 v -1.10547 c 0,-0.36829 0.26041,-0.84505 0,-1.10547 -0.52084,-0.52083 -1.55212,0.32941 -2.21093,0 -0.46585,-0.23292 -0.63767,-0.87255 -1.10352,-1.10547 -0.3294,-0.1647 -0.77607,0.1647 -1.10547,0 -1.53358,-0.76679 -1.10547,-1.96577 -1.10547,-3.31445 0,-0.36828 -0.26042,-0.8431 0,-1.10352 0.26041,-0.26042 0.84505,0.26042 1.10547,0 0.26042,-0.26042 -0.1647,-0.77607 0,-1.10547 0.48964,-0.97928 2.64395,-2.308685 3.31446,-3.314451 0.45679,-0.685202 0.64866,-1.523783 1.10546,-2.208985 0.57781,-0.866719 1.63117,-1.344218 2.20899,-2.210937 0.4568,-0.685202 0.73719,-1.472415 1.10547,-2.208985 0.36828,-0.73657 0.84506,-1.427734 1.10547,-2.208984 0.23116,-0.693465 0,-3.530475 0,-4.419922 v -1.105468 c 0,-0.368285 0.16471,-0.776065 0,-1.105469 -0.23292,-0.465847 -0.87255,-0.637669 -1.10547,-1.103516 -0.1647,-0.329404 0.26042,-0.845052 0,-1.105469 -0.0445,-0.04446 -4.03027,0.113127 -4.41992,0 z m 10.97851,59.988279 c 0.008,0.14215 0.14215,0.008 0,0 z"
         style="fill:none;fill-opacity:1;stroke:#00ff00;stroke-width:4;stroke-linecap:butt;stroke-linejoin:round;stroke-miterlimit:4;stroke-dasharray:none;stroke-opacity:1"
         inkscape:connector-curvature="0" />
      <path
         id="path4353-4-0-9"
         d="m 375.09766,134.25586 c -0.80102,0 -1.60101,0.0268 -1.65625,0.082 -0.26042,0.26041 0.26042,0.84505 0,1.10547 -0.0355,0.0355 -3.04651,0 -3.31446,0 h -8.83984 c -0.49758,0 -2.97821,-0.16812 -3.31445,0 -0.46585,0.23292 -0.63962,0.87059 -1.10547,1.10352 -0.3294,0.16471 -0.8431,-0.26042 -1.10352,0 -0.26042,0.26042 0.26042,0.84504 0,1.10546 -0.26042,0.26041 -0.77607,-0.1647 -1.10547,0 -0.46585,0.23292 -0.73718,0.73719 -1.10547,1.10547 -0.36828,0.36829 -0.87059,0.63767 -1.10351,1.10352 -0.1647,0.3294 0.26041,0.84505 0,1.10547 -0.26042,0.26042 -0.84505,-0.26042 -1.10547,0 -0.26041,0.26042 0.16471,0.77606 0,1.10547 -0.26895,0.53791 -4.19569,4.13962 -4.41992,4.41992 -0.82952,1.0369 -1.52581,2.17581 -2.20899,3.31445 -0.4237,0.70615 -0.52315,1.62668 -1.10546,2.20898 -0.58231,0.58231 -1.75218,0.42027 -2.20899,1.10547 -0.40139,0.6021 -1.53371,3.78749 -2.77539,7.40625 a 51.928154,51.928154 0 0 0 21.55664,4.7461 51.928154,51.928154 0 0 0 37.56445,-16.16406 c -1.07297,-0.77417 -1.94543,-1.3819 -2.20898,-1.51368 -0.46585,-0.23293 -0.58268,-1.10351 -1.10352,-1.10351 0.26042,0.26042 0.36829,1.10351 0,1.10351 -0.36828,0 -0.36828,-1.10351 0,-1.10351 -0.2653,-0.2653 -0.58173,-0.51226 -0.91992,-0.70899 0.0843,0.32916 0.0619,0.70899 -0.18555,0.70899 -0.52082,0 -1.62629,-1.10547 -1.10546,-1.10547 -2.94627,0 0.36962,0.36767 -1.10352,-1.10547 -0.26042,-0.26041 -0.77607,0.16471 -1.10547,0 -0.9317,-0.46584 -1.27729,-1.74314 -2.20898,-2.20898 -0.59937,-0.29969 -4.11761,0.30231 -4.41992,0 -0.52083,-0.52084 0.52083,-1.69011 0,-2.21094 -0.26042,-0.26042 -0.84505,0.26041 -1.10547,0 -2.28598,-2.28601 3.49267,0.0901 -1.10547,-2.20899 -0.3294,-0.1647 -0.77412,0.1647 -1.10352,0 -0.46585,-0.23293 -0.63962,-0.87253 -1.10547,-1.10546 -0.3294,-0.16471 -0.84506,0.26042 -1.10546,0 -0.26043,-0.26041 0.2604,-0.8431 0,-1.10352 -0.26043,-0.26042 -0.8431,0.26042 -1.10352,0 -0.26041,-0.26042 0.26042,-0.84506 0,-1.10547 -0.0552,-0.0552 -0.85718,-0.082 -1.6582,-0.082 z m 17.125,11.13086 c 0.44832,0 0.88691,0.16142 1.29101,0.39648 -0.0412,-0.16071 -0.10011,-0.31104 -0.18555,-0.39648 -0.26042,-0.26042 -0.73717,0 -1.10546,0 z"
         style="display:inline;fill:none;fill-opacity:1;stroke:#00ff00;stroke-width:4;stroke-linecap:butt;stroke-linejoin:round;stroke-miterlimit:4;stroke-dasharray:none;stroke-opacity:1"
         inkscape:connector-curvature="0" />
      <path
         id="path4353-4"
         d="m 400.1582,80.269531 -7.93554,3.244141 c -0.36828,0 -0.8431,-0.260417 -1.10352,0 -0.26042,0.260417 0.26042,0.845053 0,1.105469 -0.26042,0.260417 -0.73719,0 -1.10547,0 h -1.10547 c -2.94628,0 0.36963,-0.367671 -1.10351,1.105468 -0.55243,0.552427 -2.76203,-0.552427 -3.31446,0 -0.26041,0.260416 0.26042,0.845053 0,1.105469 -0.52083,0.520834 -1.69009,-0.520833 -2.21093,0 -0.26041,0.260417 0.26042,0.843099 0,1.103516 -0.26041,0.260416 -0.84505,-0.260417 -1.10547,0 -0.52083,0.520833 0.52083,1.690104 0,2.210937 -0.26042,0.260417 -0.84311,-0.260416 -1.10352,0 -0.26042,0.260417 0.26041,0.843099 0,1.103516 -0.26042,0.260416 -0.84505,-0.260417 -1.10547,0 -0.26041,0.260416 0.26042,0.845052 0,1.105469 -0.26041,0.260417 -0.84505,-0.260417 -1.10546,0 -0.26043,0.260417 0.16469,0.776064 0,1.105468 -2.29907,4.598139 0.077,-1.182467 -2.20899,1.103516 -0.58231,0.582309 -0.64866,1.525736 -1.10547,2.210938 -0.2889,0.433359 -0.73523,0.73523 -1.10351,1.103515 -0.36828,0.368284 -0.63963,0.872545 -1.10547,1.105469 -0.32941,0.164702 -0.77606,-0.164702 -1.10547,0 -0.93169,0.465848 -1.27729,1.743148 -2.20899,2.208988 -0.3294,0.16471 -0.84504,-0.26041 -1.10546,0 -0.26042,0.26042 0,0.73717 0,1.10547 0,0.36827 -0.26042,0.84505 0,1.10546 0.26042,0.26042 0.84505,-0.26041 1.10546,0 0.26042,0.26042 -0.26041,0.8431 0,1.10352 0.0355,0.0355 3.0465,0 3.31446,0 h 5.52344 c 1.10484,0 2.26629,-0.34939 3.31445,0 0.34939,0.11646 -0.26042,0.84506 0,1.10547 0.26042,0.26042 0.77607,-0.1647 1.10547,0 0.46585,0.23293 0.63962,0.87254 1.10547,1.10547 0.3294,0.1647 0.84505,-0.26042 1.10546,0 0.26042,0.26041 -0.26041,0.84505 0,1.10547 0.26042,0.26042 0.77411,-0.1647 1.10352,0 0.46585,0.23292 0.63962,0.87058 1.10547,1.10351 0.32941,0.1647 0.84505,0.26041 1.10547,0 0.26041,-0.26042 -0.16471,-0.77411 0,-1.10351 0.66291,-1.32582 2.65154,-1.99059 3.31445,-3.31641 0.1647,-0.32941 -0.1647,-0.77411 0,-1.10352 0.66025,-1.3205 1.64873,-1.19174 2.76953,-1.1289 -1.38575,-0.0377 0.50657,-0.0129 1.64844,1.1289 0.52083,0.52084 -0.52084,1.68816 0,2.20899 0.26041,0.26042 0.84505,-0.26041 1.10547,0 0.0445,0.0445 0,4.01418 0,4.41992 0,0.36828 0.26042,0.84506 0,1.10547 -0.26042,0.26042 -0.84506,-0.26041 -1.10547,0 -0.26042,0.26042 0.26041,0.84309 0,1.10351 -0.26042,0.26041 -0.77411,-0.1647 -1.10352,0 -0.46584,0.23292 -0.63961,0.87255 -1.10547,1.10547 -0.69443,0.34722 -3.72549,-0.34721 -4.41992,0 -0.46585,0.23293 -0.63767,0.87254 -1.10351,1.10547 -0.43807,0.21903 -3.08858,-0.22588 -3.31446,0 -0.26041,0.26041 0.26042,0.8431 0,1.10352 -0.26041,0.26042 -0.84504,-0.26042 -1.10546,0 -0.26042,0.26042 0,0.73718 0,1.10547 0,0.57775 -0.14526,4.12941 0,4.41992 0.23292,0.46585 0.87254,0.63766 1.10546,1.10351 0.16471,0.3294 -0.26041,0.84506 0,1.10547 0.26042,0.26042 0.77411,-0.1647 1.10352,0 0.46585,0.23293 0.73719,0.73718 1.10547,1.10547 2.53325,2.53324 -0.69889,-0.46656 3.31445,2.20899 0.86671,0.57782 1.2773,1.74509 2.20899,2.21093 0.65881,0.32941 1.6901,-0.52083 2.21093,0 0.26042,0.26042 -0.26041,0.8431 0,1.10352 0.26586,0.26586 4.15211,-0.26586 4.41797,0 0.26042,0.26041 0,0.73719 0,1.10547 v 1.10547 1.10351 3.31446 1.10546 c 0,0.36828 -0.26042,0.84506 0,1.10547 0.26042,0.26042 0.84506,-0.26041 1.10547,0 0.26042,0.26042 -0.1647,0.77411 0,1.10352 0.23293,0.46584 0.87255,0.63962 1.10547,1.10547 0.1647,0.32941 -0.26042,0.84505 0,1.10547 0.19832,0.19831 0.86954,0.48962 1.79492,0.83593 a 51.928154,51.928154 0 0 0 9.25391,-29.5625 51.928154,51.928154 0 0 0 -11.95313,-33.076169 z"
         style="display:inline;fill:none;fill-opacity:1;stroke:#00ff00;stroke-width:4;stroke-linecap:butt;stroke-linejoin:round;stroke-miterlimit:4;stroke-dasharray:none;stroke-opacity:1"
         inkscape:connector-curvature="0" />
    </g>
    <flowRoot
       xml:space="preserve"
       id="flowRoot5292"
       style="font-style:normal;font-variant:normal;font-weight:normal;font-stretch:normal;line-height:0.01%;font-family:'Anime Ace 2.0 BB';-inkscape-font-specification:'Anime Ace 2.0 BB, Normal';text-align:center;letter-spacing:0px;word-spacing:0px;writing-mode:lr-tb;text-anchor:middle;display:inline;fill:#00ff00;fill-opacity:1;stroke:none;stroke-width:1px;stroke-linecap:butt;stroke-linejoin:miter;stroke-opacity:1"
       transform="translate(783.45278,443.25608)"><flowRegion
         id="flowRegion5294"
         style="fill:#00ff00;fill-opacity:1"><rect
           id="rect5296"
           width="214.34175"
           height="77.339813"
           x="116.0097"
           y="220.51651"
           style="font-style:normal;font-variant:normal;font-weight:normal;font-stretch:normal;font-size:30px;line-height:125%;font-family:'Anime Ace 2.0 BB';-inkscape-font-specification:'Anime Ace 2.0 BB, Normal';text-align:center;writing-mode:lr-tb;text-anchor:middle;fill:#00ff00;fill-opacity:1" /></flowRegion><flowPara
         id="flowPara5298"
         style="font-style:normal;font-variant:normal;font-weight:normal;font-stretch:normal;font-size:30px;line-height:125%;font-family:'Anime Ace 2.0 BB';-inkscape-font-specification:'Anime Ace 2.0 BB, Normal';text-align:center;writing-mode:lr-tb;text-anchor:middle;fill:#00ff00;fill-opacity:1">web server</flowPara></flowRoot>    <path
       transform="translate(0,-258.66137)"
       style="display:inline;opacity:1;fill:#999999;fill-opacity:1;fill-rule:nonzero;stroke:#999999;stroke-width:4;stroke-linecap:round;stroke-linejoin:round;stroke-miterlimit:4;stroke-dasharray:none;stroke-dashoffset:0;stroke-opacity:1;marker-end:url(#marker7459-7-1)"
       d="M 662.95312,862.96895 H 911.46495"
       id="path6981-9-5"
       inkscape:connector-curvature="0" />
    <flowRoot
       transform="translate(449.69308,451.34122)"
       xml:space="preserve"
       id="flowRoot9205-0-1"
       style="font-style:normal;font-variant:normal;font-weight:normal;font-stretch:normal;font-size:30px;line-height:125%;font-family:'Anime Ace 2.0 BB';-inkscape-font-specification:'Anime Ace 2.0 BB, Normal';text-align:center;letter-spacing:0px;word-spacing:0px;writing-mode:lr-tb;text-anchor:middle;display:inline;fill:#000000;fill-opacity:1;stroke:none;stroke-width:1px;stroke-linecap:butt;stroke-linejoin:miter;stroke-opacity:1"><flowRegion
         id="flowRegion9207-5-5"><rect
           id="rect9209-8-1"
           width="213.00699"
           height="44.534687"
           x="232.7578"
           y="109.30039" /></flowRegion><flowPara
         id="flowPara9211-4-1"
         style="fill:#999999;fill-opacity:1">uploads</flowPara></flowRoot>  </g>
</svg>
